<svg id="logo-lab" xmlns="http://www.w3.org/2000/svg" width="274" height="54.72" viewBox="0 0 274 54.72">
  <defs>
    <style>
      .cls-1 {
        fill: #333;
      }

      .cls-1, .cls-2, .cls-3 {
        fill-rule: evenodd;
      }

      .cls-2 {
        fill: #fff;
      }

      .cls-3 {
        fill: #88a33d;
      }
    </style>
  </defs>
  <path class="cls-1" d="M1559.09,4036.05v-1.19h8.14v-3.56h-8.14v-1.19h8.14v-3.42c0-1.21,2.75-2.32.86-3.09l-21.56-.03c-1.49.94,1.38,1.91,1.38,3.12v13.75c8.26,4.17,11.06-3.53,19.32-1.04v-3.35h-8.14Zm-12.56-12.48,21.56,0.03c1.89,0.77-.86,1.88-0.86,3.09v3.42h-8.14v1.19h8.14v3.56h-8.14v1.19h8.14v3.35a11.276,11.276,0,0,0-3.28-.51c-4.38,0-7.2,2.82-11.25,2.82a10.492,10.492,0,0,1-4.79-1.27v-13.75c0-1.21-2.87-2.18-1.38-3.12m0-1.98a2.02,2.02,0,0,0-1.07.31,2.653,2.653,0,0,0-1.34,2.03,3.4,3.4,0,0,0,1.44,2.79c0.11,0.1.25,0.23,0.35,0.33v13.39a1.981,1.981,0,0,0,1.09,1.77,12.554,12.554,0,0,0,5.7,1.47,15.945,15.945,0,0,0,6.14-1.5,13.6,13.6,0,0,1,5.11-1.31,9.349,9.349,0,0,1,2.7.42,1.948,1.948,0,0,0,.58.09,2.041,2.041,0,0,0,1.19-.39,1.961,1.961,0,0,0,.81-1.59v-12.41c0.09-.1.21-0.24,0.31-0.34a3.225,3.225,0,0,0,1.15-2.92,2.768,2.768,0,0,0-1.85-1.96,1.931,1.931,0,0,0-.75-0.15l-21.55-.03h-0.01Z" transform="translate(-1309 -3994.06)"/>
  <path id="Shape_8_copy" data-name="Shape 8 copy" class="cls-2" d="M1559.09,4036.05v-1.19h8.14v-3.56h-8.14v-1.19h8.14v-3.42c0-1.21,2.75-2.32.86-3.09l-21.56-.03c-1.49.94,1.38,1.91,1.38,3.12v13.75c8.26,4.17,11.06-3.53,19.32-1.04v-3.35h-8.14Z" transform="translate(-1309 -3994.06)"/>
  <path id="A_product_of_" data-name="A product of " class="cls-1" d="M1400.23,4004l-3.65-9.32h-0.91L1392,4004h1.09l1.14-2.95h3.72l1.16,2.95h1.12Zm-5.61-3.92,1.09-2.88c0.17-.49.3-0.93,0.4-1.34a12.625,12.625,0,0,0,.43,1.34l1.08,2.88h-3Zm14.81,3.1a5.007,5.007,0,0,0,.01-5.32,2.558,2.558,0,0,0-2.13-.94,2.861,2.861,0,0,0-1.24.25,2.465,2.465,0,0,0-.95.83h-0.05l-0.14-.96h-0.86v10.08h1.05v-2.86a9.6,9.6,0,0,0-.07-1.16h0.07a2.38,2.38,0,0,0,.95.78,3.119,3.119,0,0,0,1.24.25A2.585,2.585,0,0,0,1409.43,4003.18Zm-0.84-4.67a3.3,3.3,0,0,1,.51,1.99,3.434,3.434,0,0,1-.51,2.01,1.619,1.619,0,0,1-1.41.73,1.87,1.87,0,0,1-1.57-.63,3.523,3.523,0,0,1-.49-2.1v-0.23a3.091,3.091,0,0,1,.49-1.88,1.886,1.886,0,0,1,1.55-.59A1.663,1.663,0,0,1,1408.59,3998.51Zm5.1-1.23a3.11,3.11,0,0,0-.94,1.05h-0.05l-0.12-1.29h-0.87V4004h1.06v-3.73a2.513,2.513,0,0,1,.6-1.71,1.846,1.846,0,0,1,1.44-.69,3.877,3.877,0,0,1,.76.1l0.15-.98a4.284,4.284,0,0,0-.83-0.07A2.116,2.116,0,0,0,1413.69,3997.28Zm8.15,0.61a2.948,2.948,0,0,0-2.32-.97,2.994,2.994,0,0,0-2.36.94,3.837,3.837,0,0,0-.85,2.65,4.385,4.385,0,0,0,.39,1.92,2.812,2.812,0,0,0,1.12,1.26,3.131,3.131,0,0,0,1.65.44,3.01,3.01,0,0,0,2.37-.96,3.85,3.85,0,0,0,.86-2.66A3.811,3.811,0,0,0,1421.84,3997.89Zm-3.91.6a1.858,1.858,0,0,1,1.56-.68,1.889,1.889,0,0,1,1.58.69,3.21,3.21,0,0,1,.54,2.01,3.266,3.266,0,0,1-.54,2.04,2.131,2.131,0,0,1-3.14,0,3.375,3.375,0,0,1-.53-2.04A3.2,3.2,0,0,1,1417.93,3998.49Zm11.17,5.51h0.85v-9.88h-1.05v2.83l0.02,0.49,0.05,0.5h-0.08a2.829,2.829,0,0,0-4.29-.07,5.007,5.007,0,0,0-.01,5.32,2.584,2.584,0,0,0,2.13.94,2.5,2.5,0,0,0,2.18-1.06h0.06Zm-3.69-1.43a3.524,3.524,0,0,1-.48-2.02,3.563,3.563,0,0,1,.49-2.03,1.615,1.615,0,0,1,1.42-.72,1.87,1.87,0,0,1,1.57.63,3.538,3.538,0,0,1,.49,2.11v0.22a2.944,2.944,0,0,1-.49,1.9,1.9,1.9,0,0,1-1.56.58A1.671,1.671,0,0,1,1425.41,4002.57Zm6.38-5.53v4.55a2.56,2.56,0,0,0,.63,1.93,2.615,2.615,0,0,0,1.9.61,2.9,2.9,0,0,0,1.31-.28,2.137,2.137,0,0,0,.9-0.78h0.05l0.16,0.93h0.87v-6.96h-1.06v3.66a3.062,3.062,0,0,1-.5,1.95,1.978,1.978,0,0,1-1.6.59,1.608,1.608,0,0,1-1.21-.41,1.822,1.822,0,0,1-.39-1.27v-4.52h-1.06Zm12.26,6.73v-0.94a4.636,4.636,0,0,1-1.78.38,1.78,1.78,0,0,1-1.53-.69,3.188,3.188,0,0,1-.52-1.97c0-1.8.71-2.7,2.12-2.7a3.448,3.448,0,0,1,.73.09,4.867,4.867,0,0,1,.76.23l0.33-.89a3.638,3.638,0,0,0-.79-0.26,4.916,4.916,0,0,0-1-.1,3.013,3.013,0,0,0-2.4.95,3.934,3.934,0,0,0-.84,2.7,3.791,3.791,0,0,0,.83,2.63,2.964,2.964,0,0,0,2.34.93,3.785,3.785,0,0,0,1.75-.36h0Zm2.76-.85a1.4,1.4,0,0,1-.3-0.96v-4.1h2.02v-0.82h-2.02v-1.61h-0.61l-0.44,1.49-1,.43v0.51h1V4002a1.832,1.832,0,0,0,2.01,2.13,3.38,3.38,0,0,0,.6-0.06,1.951,1.951,0,0,0,.51-0.13v-0.81a3.858,3.858,0,0,1-.41.09,4.9,4.9,0,0,1-.54.04A1.022,1.022,0,0,1,1446.81,4002.92Zm11.03-5.03a2.934,2.934,0,0,0-2.32-.97,3.009,3.009,0,0,0-2.36.94,3.837,3.837,0,0,0-.85,2.65,4.385,4.385,0,0,0,.39,1.92,2.872,2.872,0,0,0,1.12,1.26,3.141,3.141,0,0,0,1.66.44,3,3,0,0,0,2.36-.96A4.482,4.482,0,0,0,1457.84,3997.89Zm-3.91.6a2.142,2.142,0,0,1,3.14.01,3.21,3.21,0,0,1,.54,2.01,3.266,3.266,0,0,1-.54,2.04,2.131,2.131,0,0,1-3.14,0,3.375,3.375,0,0,1-.53-2.04A3.269,3.269,0,0,1,1453.93,3998.49Zm9.43-1.45h-1.77v-0.45a2.211,2.211,0,0,1,.28-1.27,1.039,1.039,0,0,1,.89-0.4,3.6,3.6,0,0,1,1.04.2l0.27-.84a4.632,4.632,0,0,0-1.29-.23c-1.5,0-2.25.86-2.25,2.57V3997l-1.24.39v0.47h1.24V4004h1.06v-6.14h1.77v-0.82Z" transform="translate(-1309 -3994.06)"/>
  <path id="labs" class="cls-3" d="M1501.36,4047.03c0.31,0.6,2.98,1.46,3.27.74-0.16-1.02-.28-2.04-0.4-3.07a236.063,236.063,0,0,1-1.54-25.23c-0.01-.69-1.83-1.4-2.74-1.23a0.546,0.546,0,0,0-.5.45,228.9,228.9,0,0,0,1.3,24.96A12.509,12.509,0,0,0,1501.36,4047.03Zm26-3.66a5.227,5.227,0,0,1-5.64-2.24c-0.46,1.6-1.38,3.07-2.94,3.37a2.885,2.885,0,0,1-3.19-1.96l-0.19.04a4.774,4.774,0,0,1-3.47,3.49c-2.79.53-5.46-1.91-6.34-6.48-1.3-6.79.53-14.13,5.05-14.99,2.57-.49,4.02.95,4.24,2.07,0.03,0.19.04,0.42,0.04,0.42,0.36,0.05,1.84-.19,1.78.71-0.36,4.42-.55,8.5.02,11.46,0.33,1.72.85,2.83,2.14,2.58,1.24-.24,1.72-1.34,1.86-2.71a15,15,0,0,1-.71-2.44c-1.14-5.92-.71-21.77-0.03-21.9,0.94-.18,2.69.38,2.77,0.79-0.1,1.73-.6,8.66-0.53,11.06,0.67-2.62,1.9-3.98,2.95-4.18,2.42-.46,5.16,2.63,5.68,5.33C1531.43,4030.79,1532.08,4042.47,1527.36,4043.37Zm-14.02-10.89a3.727,3.727,0,0,1-1.9-.49,6.484,6.484,0,0,0,.56-3.99c-0.06-.34-0.24-1.24-0.95-1.1-2.76.52-2.73,9.8-1.97,13.73,0.45,2.32,1,3.15,1.98,2.97C1513.29,4043.17,1513.6,4033.83,1513.34,4032.48Zm14.46-5.74c-0.22-1.12-.41-2.29-1.43-2.1-2.3.44-2.95,7.01-3.03,9.24,0.01,0.04-.03.04-0.06,0.05l-0.51.02a26.313,26.313,0,0,0,.46,4.42c0.28,1.46,1.05,2.6,2.18,2.38C1529.68,4039.94,1527.88,4027.19,1527.8,4026.74Zm6.33-.19a12.935,12.935,0,0,1,3.76-2.62c0.38-.07.69,0.92,1.06,0.84,0.95-.17,3.12-2.72,2.84-4.15a2.169,2.169,0,0,0-1.56-1.41c-0.57.11-9.11,5.11-8.95,6.71a3.772,3.772,0,0,0,1.53,2.66c2.54-.17,6.62,1.93,7.36,5.75,0.49,2.55-.31,4.49-2.68,4.94a2.588,2.588,0,0,1-3.1-1.66c-0.07-.34.98-3.61,0.75-4.81a2.813,2.813,0,0,0-1.96-1.06c-1.36.26-1.69,3.39-1.43,4.78,0.57,2.96,4.31,5.9,7.48,5.29,2.6-.49,4.59-2.54,3.76-6.85-1.26-6.52-8.79-8.27-8.79-8.27Z" transform="translate(-1309 -3994.06)"/>
  <path id="Shape_37_copy_15" data-name="Shape 37 copy 15" class="cls-3" d="M1552.46,4009a2.705,2.705,0,1,1-2.72,2.71A2.716,2.716,0,0,1,1552.46,4009Zm9.54,5.86a1.74,1.74,0,1,1-1.75,1.74A1.737,1.737,0,0,1,1562,4014.86Zm1.17-13.86a3.14,3.14,0,1,1-3.17,3.14A3.156,3.156,0,0,1,1563.17,4001Z" transform="translate(-1309 -3994.06)"/>
  <path id="Shape_9_copy_12" data-name="Shape 9 copy 12" class="cls-1" d="M1315.5,4030.89a6.494,6.494,0,0,1-.38-2.81v-15.92H1309v0.7c1.52,0.04,2.45.34,2.82,0.91a7.067,7.067,0,0,1,.36,2.95v15.93h6.12v-0.73C1316.82,4031.89,1315.89,4031.54,1315.5,4030.89Zm22.8-2.84h-0.08l-14.73-15.89h-1.41v12.13a40.3,40.3,0,0,1-.28,6c-0.19,1.08-1.21,1.62-3.03,1.63v0.73h8.4v-0.73a5.709,5.709,0,0,1-2.44-.46,1.792,1.792,0,0,1-.98-1.17,33.232,33.232,0,0,1-.26-5.58v-8.47l0.08-.02,15.22,16.66,0.92,0.01v-12.38a38.25,38.25,0,0,1,.28-6.03c0.21-1.06,1.23-1.6,3.03-1.62v-0.7h-4.72v15.89Zm67.61-1.44a4.527,4.527,0,0,0-1.8-3.73,8.212,8.212,0,0,0-4.29-1.58v-0.06a6.561,6.561,0,0,0,3.21-1.57,3.882,3.882,0,0,0,1.41-2.94q0-4.575-6.94-4.57h-6.4v15.92a7.115,7.115,0,0,1-.36,2.9c-0.39.59-1.35,0.9-2.89,0.94v0.73h8.09a15.966,15.966,0,0,0,6.65-1.16A5.1,5.1,0,0,0,1405.91,4026.61Zm-11.87-12.91a0.525,0.525,0,0,1,.54-0.64h1.72q5.025,0,5.03,4t-5.07,4h-2.22v-7.36Zm6.42,17.13a11.835,11.835,0,0,1-4.89.73h-0.94a0.561,0.561,0,0,1-.59-0.54v-9.03h2.04a7.857,7.857,0,0,1,4.56,1.17,4.414,4.414,0,0,1,1.86,3.84A3.891,3.891,0,0,1,1400.46,4030.83Zm21.57-1.94q-5.97-14.655-7.07-17.23l-0.8.29-7.24,16.76a9.224,9.224,0,0,1-1.24,2.31,3.658,3.658,0,0,1-2.55.9v0.73h7.53v-0.73c-1.73.07-2.59-.32-2.59-1.15,0-.63.68-2.6,2.06-5.92h7.15q2.385,5.535,2.38,6.23c0,0.65-.79.93-2.38,0.84v0.73h8.5v-0.73a3.611,3.611,0,0,1-2.48-.82A6.614,6.614,0,0,1,1422.03,4028.89Zm-11.45-5.24,3.05-7.75h0.07l3.11,7.75h-6.23Zm11.6-11.49v1h7.96v14.92a5.862,5.862,0,0,1-.47,3c-0.41.53-1.45,0.81-3.11,0.84v0.73h10.24v-0.73c-1.7-.03-2.76-0.3-3.2-0.82a5.536,5.536,0,0,1-.52-3.02v-14.92h2.35a6.777,6.777,0,0,1,3.66.68,5.221,5.221,0,0,1,1.46,3.07l0.89-.1c-0.17-2.07-.26-3.62-0.26-4.65h-19Zm26.16,18.73a6.544,6.544,0,0,1-.37-2.81v-15.92h-6.12v0.7c1.51,0.04,2.45.34,2.81,0.91a7.067,7.067,0,0,1,.36,2.95v15.93h6.13v-0.73C1449.67,4031.89,1448.74,4031.54,1448.34,4030.89Zm13.47-19.23a12.112,12.112,0,0,0-8.56,3.15,10.207,10.207,0,0,0-3.4,7.82,9.83,9.83,0,0,0,3.16,7.46,11.461,11.461,0,0,0,8.18,3.03,11.8,11.8,0,0,0,8.55-3.16,10.372,10.372,0,0,0,3.25-7.85,9.786,9.786,0,0,0-3.08-7.41A11.2,11.2,0,0,0,1461.81,4011.66Zm5.96,17.74a6.948,6.948,0,0,1-5.83,2.69,7.666,7.666,0,0,1-6.63-3.44,11.774,11.774,0,0,1-2.05-6.94,10.215,10.215,0,0,1,1.75-6.11,6.775,6.775,0,0,1,5.9-2.88q8.67,0,8.67,10.82A9.266,9.266,0,0,1,1467.77,4029.4Zm23.38-17.24v15.89h-0.08l-14.74-15.89h-1.4v12.13a40.3,40.3,0,0,1-.28,6c-0.2,1.08-1.21,1.62-3.03,1.63v0.73h8.39v-0.73a5.779,5.779,0,0,1-2.44-.46,1.82,1.82,0,0,1-.98-1.17,34.434,34.434,0,0,1-.26-5.58v-8.47l0.08-.02,15.22,16.66,0.92,0.01v-12.38a39.591,39.591,0,0,1,.28-6.03c0.22-1.06,1.23-1.6,3.04-1.62v-0.7h-4.72Z" transform="translate(-1309 -3994.06)"/>
  <path id="Shape_9_copy_12-2" data-name="Shape 9 copy 12" class="cls-3" d="M1380.88,4022.78q0-19.545-16.04-19.55-7.155,0-10.96,5.34a18.934,18.934,0,0,0-3.2,11.28,22.663,22.663,0,0,0,3.01,11.71,14.216,14.216,0,0,0,10.07,7.26l3.83-.92,1.72,0.94q11.58-1.86,11.57-16.06m7.64,26-14.18-2.17-10.27-5.66q-8.835-.63-14.27-6.03a18.114,18.114,0,0,1-5.44-13.36,18.915,18.915,0,0,1,6.3-14.46q6.3-5.835,15.85-5.84,9.09,0,14.95,5.62a18.233,18.233,0,0,1,5.73,13.73,19.638,19.638,0,0,1-3.98,12.22,20.282,20.282,0,0,1-11.4,7.36Z" transform="translate(-1309 -3994.06)"/>
  <path id="TM" class="cls-1" d="M1574.63,4013.87h1.82v-0.59h-4.31v0.59h1.82v5.12h0.67v-5.12Zm5.76,5.12,1.97-5.05h0.03c-0.04.49-.06,0.95-0.06,1.37v3.68H1583v-5.71h-1l-1.83,4.71h-0.03l-1.82-4.71h-1.01v5.71h0.62v-3.63c0-.55-0.02-1.03-0.06-1.43h0.04l1.94,5.06h0.54Z" transform="translate(-1309 -3994.06)"/>
</svg>
