<svg id="logo-lab" xmlns="http://www.w3.org/2000/svg" width="274" height="54.72" viewBox="0 0 274 54.72"><defs><style>.cls-1{fill:#333}.cls-1,.cls-2,.cls-4{fill-rule:evenodd}.cls-2{fill:#fff}.cls-3{font-size:72px;font-family:&amp;quot;Reklame Script DEMO&amp;quot;}.cls-3,.cls-4{fill:#88a33d}</style></defs><path class="cls-1" d="M1559.09 4036.05v-1.19h8.14v-3.56h-8.14v-1.19h8.14v-3.42c0-1.21 2.75-2.32.86-3.09l-21.56-.03c-1.49.94 1.38 1.91 1.38 3.12v13.75c8.26 4.17 11.06-3.53 19.32-1.04v-3.35h-8.14zm-12.56-12.48l21.56.03c1.89.77-.86 1.88-.86 3.09v3.42h-8.14v1.19h8.14v3.56h-8.14v1.19h8.14v3.35a11.276 11.276 0 0 0-3.28-.51c-4.38 0-7.2 2.82-11.25 2.82a10.492 10.492 0 0 1-4.79-1.27v-13.75c0-1.21-2.87-2.18-1.38-3.12m0-1.98a2.02 2.02 0 0 0-1.07.31 2.653 2.653 0 0 0-1.34 2.03 3.4 3.4 0 0 0 1.44 2.79c.11.1.25.23.35.33v13.39a1.981 1.981 0 0 0 1.09 1.77 12.554 12.554 0 0 0 5.7 1.47 15.945 15.945 0 0 0 6.14-1.5 13.6 13.6 0 0 1 5.11-1.31 9.349 9.349 0 0 1 2.7.42 1.948 1.948 0 0 0 .58.09 2.041 2.041 0 0 0 1.19-.39 1.961 1.961 0 0 0 .81-1.59v-12.41c.09-.1.21-.24.31-.34a3.225 3.225 0 0 0 1.15-2.92 2.768 2.768 0 0 0-1.85-1.96 1.931 1.931 0 0 0-.75-.15l-21.55-.03h-.01z" transform="translate(-1309 -3994.06)"/><path id="Shape_8_copy" data-name="Shape 8 copy" class="cls-2" d="M1559.09 4036.05v-1.19h8.14v-3.56h-8.14v-1.19h8.14v-3.42c0-1.21 2.75-2.32.86-3.09l-21.56-.03c-1.49.94 1.38 1.91 1.38 3.12v13.75c8.26 4.17 11.06-3.53 19.32-1.04v-3.35h-8.14z" transform="translate(-1309 -3994.06)"/><path id="A_product_of_" data-name="A product of" class="cls-1" d="M1400.23 4004l-3.65-9.32h-.91L1392 4004h1.09l1.14-2.95h3.72l1.16 2.95h1.12zm-5.61-3.92l1.09-2.88a13.833 13.833 0 0 0 .4-1.34c.15.53.29.98.43 1.34l1.08 2.88h-3zm14.81 3.1a5.007 5.007 0 0 0 .01-5.32 2.558 2.558 0 0 0-2.13-.94 2.861 2.861 0 0 0-1.24.25 2.465 2.465 0 0 0-.95.83h-.05l-.14-.96h-.86v10.08h1.05v-2.86a9.6 9.6 0 0 0-.07-1.16h.07a2.38 2.38 0 0 0 .95.78 3.119 3.119 0 0 0 1.24.25 2.585 2.585 0 0 0 2.12-.95zm-.84-4.67a3.3 3.3 0 0 1 .51 1.99 3.434 3.434 0 0 1-.51 2.01 1.619 1.619 0 0 1-1.41.73 1.87 1.87 0 0 1-1.57-.63 3.509 3.509 0 0 1-.49-2.09v-.24a3.091 3.091 0 0 1 .49-1.88 1.886 1.886 0 0 1 1.55-.59 1.663 1.663 0 0 1 1.43.7zm5.1-1.23a3.11 3.11 0 0 0-.94 1.05h-.05l-.12-1.29h-.87v6.96h1.06v-3.73a2.513 2.513 0 0 1 .6-1.71 1.846 1.846 0 0 1 1.44-.69 3.877 3.877 0 0 1 .76.1l.15-.98a4.284 4.284 0 0 0-.83-.07 2.116 2.116 0 0 0-1.2.36zm8.15.61a2.948 2.948 0 0 0-2.32-.97 2.994 2.994 0 0 0-2.36.94 3.847 3.847 0 0 0-.85 2.66 4.371 4.371 0 0 0 .39 1.91 2.812 2.812 0 0 0 1.12 1.26 3.131 3.131 0 0 0 1.65.44 3.01 3.01 0 0 0 2.37-.96 4.482 4.482 0 0 0 0-5.28zm-3.91.6a1.858 1.858 0 0 1 1.56-.68 1.889 1.889 0 0 1 1.58.69 4.067 4.067 0 0 1 0 4.05 2.131 2.131 0 0 1-3.14 0 3.363 3.363 0 0 1-.53-2.03 3.217 3.217 0 0 1 .53-2.03zm11.17 5.51h.85v-9.88h-1.05v2.83l.02.49.05.5h-.08a2.829 2.829 0 0 0-4.29-.07 5.007 5.007 0 0 0-.01 5.32 2.584 2.584 0 0 0 2.13.94 2.5 2.5 0 0 0 2.18-1.06h.06zm-3.69-1.43a3.524 3.524 0 0 1-.48-2.02 3.563 3.563 0 0 1 .49-2.03 1.615 1.615 0 0 1 1.42-.72 1.87 1.87 0 0 1 1.57.63 3.538 3.538 0 0 1 .49 2.11v.22a2.944 2.944 0 0 1-.49 1.9 1.9 1.9 0 0 1-1.56.58 1.671 1.671 0 0 1-1.44-.67zm6.38-5.53v4.55a2.56 2.56 0 0 0 .63 1.93 2.615 2.615 0 0 0 1.9.61 2.9 2.9 0 0 0 1.31-.28 2.137 2.137 0 0 0 .9-.78h.05l.16.93h.87v-6.96h-1.06v3.66a3.062 3.062 0 0 1-.5 1.95 1.978 1.978 0 0 1-1.6.59 1.608 1.608 0 0 1-1.21-.41 1.822 1.822 0 0 1-.39-1.27v-4.52h-1.06zm12.26 6.73v-.94a4.636 4.636 0 0 1-1.78.38 1.78 1.78 0 0 1-1.53-.69 3.188 3.188 0 0 1-.52-1.97c0-1.8.71-2.7 2.12-2.7a3.448 3.448 0 0 1 .73.09 4.867 4.867 0 0 1 .76.23l.33-.89a3.638 3.638 0 0 0-.79-.26 4.916 4.916 0 0 0-1-.1 3.013 3.013 0 0 0-2.4.95 3.934 3.934 0 0 0-.84 2.7 3.791 3.791 0 0 0 .83 2.63 2.964 2.964 0 0 0 2.34.93 3.785 3.785 0 0 0 1.75-.36zm2.76-.85a1.381 1.381 0 0 1-.3-.96v-4.1h2.02v-.82h-2.02v-1.61h-.61l-.44 1.49-1 .43v.51h1v4.14a1.832 1.832 0 0 0 2.01 2.13 3.38 3.38 0 0 0 .6-.06 1.951 1.951 0 0 0 .51-.13v-.81a3.858 3.858 0 0 1-.41.09 4.9 4.9 0 0 1-.54.04 1.022 1.022 0 0 1-.82-.34zm11.03-5.03a2.934 2.934 0 0 0-2.32-.97 3.009 3.009 0 0 0-2.36.94 3.847 3.847 0 0 0-.85 2.66 4.371 4.371 0 0 0 .39 1.91 2.872 2.872 0 0 0 1.12 1.26 3.141 3.141 0 0 0 1.66.44 3 3 0 0 0 2.36-.96 4.482 4.482 0 0 0 0-5.28zm-3.91.6a2.142 2.142 0 0 1 3.14.01 4.067 4.067 0 0 1 0 4.05 2.131 2.131 0 0 1-3.14 0 3.363 3.363 0 0 1-.53-2.03 3.281 3.281 0 0 1 .53-2.03zm9.43-1.45h-1.77v-.45a2.211 2.211 0 0 1 .28-1.27 1.039 1.039 0 0 1 .89-.4 3.6 3.6 0 0 1 1.04.2l.27-.84a4.632 4.632 0 0 0-1.29-.23c-1.5 0-2.25.86-2.25 2.57v.38l-1.24.39v.47h1.24v6.14h1.06v-6.14h1.77v-.82z" transform="translate(-1309 -3994.06)"/><text id="labs" class="cls-3" transform="matrix(.524 -.1 .1 .52 191.49 53.137)">labs</text><path id="Shape_37_copy_15" data-name="Shape 37 copy 15" class="cls-4" d="M1552.46 4009a2.705 2.705 0 1 1-2.72 2.71 2.716 2.716 0 0 1 2.72-2.71zm9.54 5.86a1.74 1.74 0 1 1-1.75 1.74 1.737 1.737 0 0 1 1.75-1.74zm1.17-13.86a3.14 3.14 0 1 1-3.17 3.14 3.156 3.156 0 0 1 3.17-3.14z" transform="translate(-1309 -3994.06)"/><path id="Shape_9_copy_12" data-name="Shape 9 copy 12" class="cls-1" d="M1315.5 4030.89a6.494 6.494 0 0 1-.38-2.81v-15.92H1309v.7c1.52.04 2.45.34 2.82.91a7.067 7.067 0 0 1 .36 2.95v15.93h6.12v-.73c-1.48-.03-2.41-.38-2.8-1.03zm22.8-2.84h-.08l-14.73-15.89h-1.41v12.13a40.3 40.3 0 0 1-.28 6c-.19 1.08-1.21 1.62-3.03 1.63v.73h8.4v-.73a5.709 5.709 0 0 1-2.44-.46 1.792 1.792 0 0 1-.98-1.17 33.232 33.232 0 0 1-.26-5.58v-8.47l.08-.02 15.22 16.66.92.01v-12.38a38.25 38.25 0 0 1 .28-6.03c.21-1.06 1.23-1.6 3.03-1.62v-.7h-4.72v15.89zm67.61-1.44a4.527 4.527 0 0 0-1.8-3.73 8.212 8.212 0 0 0-4.29-1.58v-.06a6.561 6.561 0 0 0 3.21-1.57 3.882 3.882 0 0 0 1.41-2.94q0-4.575-6.94-4.57h-6.4v15.92a7.115 7.115 0 0 1-.36 2.9c-.39.59-1.35.9-2.89.94v.73h8.09a15.966 15.966 0 0 0 6.65-1.16 5.1 5.1 0 0 0 3.32-4.88zm-11.87-12.91a.525.525 0 0 1 .54-.64h1.72q5.025 0 5.03 4t-5.07 4h-2.22v-7.36zm6.42 17.13a11.835 11.835 0 0 1-4.89.73h-.94a.561.561 0 0 1-.59-.54v-9.03h2.04a7.857 7.857 0 0 1 4.56 1.17 4.414 4.414 0 0 1 1.86 3.84 3.891 3.891 0 0 1-2.04 3.83zm21.57-1.94q-5.97-14.655-7.07-17.23l-.8.29-7.24 16.76a9.224 9.224 0 0 1-1.24 2.31 3.658 3.658 0 0 1-2.55.9v.73h7.53v-.73c-1.73.07-2.59-.32-2.59-1.15 0-.63.68-2.6 2.06-5.92h7.15q2.385 5.535 2.38 6.23c0 .65-.79.93-2.38.84v.73h8.5v-.73a3.611 3.611 0 0 1-2.48-.82 6.614 6.614 0 0 1-1.27-2.21zm-11.45-5.24l3.05-7.75h.07l3.11 7.75h-6.23zm11.6-11.49v1h7.96v14.92a5.862 5.862 0 0 1-.47 3c-.41.53-1.45.81-3.11.84v.73h10.24v-.73c-1.7-.03-2.76-.3-3.2-.82a5.536 5.536 0 0 1-.52-3.02v-14.92h2.35a6.777 6.777 0 0 1 3.66.68 5.221 5.221 0 0 1 1.46 3.07l.89-.1c-.17-2.07-.26-3.62-.26-4.65h-19zm26.16 18.73a6.544 6.544 0 0 1-.37-2.81v-15.92h-6.12v.7c1.51.04 2.45.34 2.81.91a7.067 7.067 0 0 1 .36 2.95v15.93h6.13v-.73c-1.48-.03-2.41-.38-2.81-1.03zm13.47-19.23a12.112 12.112 0 0 0-8.56 3.15 10.207 10.207 0 0 0-3.4 7.82 9.83 9.83 0 0 0 3.16 7.46 11.461 11.461 0 0 0 8.18 3.03 11.8 11.8 0 0 0 8.55-3.16 10.372 10.372 0 0 0 3.25-7.85 9.786 9.786 0 0 0-3.08-7.41 11.2 11.2 0 0 0-8.1-3.04zm5.96 17.74a6.948 6.948 0 0 1-5.83 2.69 7.666 7.666 0 0 1-6.63-3.44 11.774 11.774 0 0 1-2.05-6.94 10.215 10.215 0 0 1 1.75-6.11 6.775 6.775 0 0 1 5.9-2.88q8.67 0 8.67 10.82a9.266 9.266 0 0 1-1.81 5.86zm23.38-17.24v15.89h-.08l-14.74-15.89h-1.4v12.13a40.3 40.3 0 0 1-.28 6c-.2 1.08-1.21 1.62-3.03 1.63v.73h8.39v-.73a5.779 5.779 0 0 1-2.44-.46 1.82 1.82 0 0 1-.98-1.17 34.434 34.434 0 0 1-.26-5.58v-8.47l.08-.02 15.22 16.66.92.01v-12.38a39.591 39.591 0 0 1 .28-6.03c.22-1.06 1.23-1.6 3.04-1.62v-.7h-4.72z" transform="translate(-1309 -3994.06)"/><path id="Shape_9_copy_12-2" data-name="Shape 9 copy 12" class="cls-4" d="M1380.88 4022.78q0-19.545-16.04-19.55-7.155 0-10.96 5.34a18.934 18.934 0 0 0-3.2 11.28 22.663 22.663 0 0 0 3.01 11.71 14.216 14.216 0 0 0 10.07 7.26l3.83-.92 1.72.94q11.58-1.86 11.57-16.06m7.64 26l-14.18-2.17-10.27-5.66q-8.835-.63-14.27-6.03a18.114 18.114 0 0 1-5.44-13.36 18.915 18.915 0 0 1 6.3-14.46q6.3-5.835 15.85-5.84 9.09 0 14.95 5.62a18.233 18.233 0 0 1 5.73 13.73 19.638 19.638 0 0 1-3.98 12.22 20.282 20.282 0 0 1-11.4 7.36z" transform="translate(-1309 -3994.06)"/><path id="TM" class="cls-1" d="M1574.63 4013.87h1.82v-.59h-4.31v.59h1.82v5.12h.67v-5.12zm5.76 5.12l1.97-5.05h.03c-.04.49-.06.95-.06 1.37v3.68h.67v-5.71h-1l-1.83 4.71h-.03l-1.82-4.71h-1.01v5.71h.62v-3.63c0-.55-.02-1.03-.06-1.43h.04l1.94 5.06h.54z" transform="translate(-1309 -3994.06)"/></svg>